<svg xmlns="http://www.w3.org/2000/svg" xmlns:xlink="http://www.w3.org/1999/xlink" width="18" height="22" viewBox="0 0 18 22">
    <defs>
        <path id="a" d="M19 20H5V4h2v3h10V4h2v16zM12 2a1 1 0 1 1 0 2 1 1 0 0 1 0-2zm7 0a2 2 0 0 1 2 2v16a2 2 0 0 1-2 2H5a2 2 0 0 1-2-2V4a2 2 0 0 1 2-2h4.184A2.992 2.992 0 0 1 12 0a2.99 2.99 0 0 1 2.816 2H19zM7 14v2h10v-2H7zm0-4v2h10v-2H7z"/>
    </defs>
    <g fill="none" fill-rule="evenodd" transform="translate(-3)">
        <mask id="b" fill="#fff">
            <use xlink:href="#a"/>
        </mask>
        <use fill="#333" xlink:href="#a"/>
    </g>
</svg>
